# xmcd
#
# Track frame offsets:
#  150
#  24705
#  56980
#  82557
#  107055
#  122940
#  141680
#  172582
#  191970
#  212552
#
# Disc length: 3159 seconds
#
# Revision: 0
# Processed by: cddbd v1.5.1PL0 Copyright (c) Steve Scherf et al.
# Submitted via: Collectorz.com Music Collector 6.9
#
DISCID=8e0c550a
DTITLE=Various Artist - Cologne Dance Sampler 6
DYEAR=1995
DGENRE=Pop
TTITLE0=Andru Donalds - Mishale
TTITLE1=Charles and Eddie - Jealousy
TTITLE2=Portrait - I Can Call You
TTITLE3=Charles and Eddie - I'm Gonna Love You
TTITLE4=Dana Dawson - 3 Is A Family
TTITLE5=Pet Shop Boys - Paninaro
TTITLE6=Andru Donalds - Mishale (Mix)
TTITLE7=Portrait - How Deep Is Your Love
TTITLE8=Mica Paris - One
TTITLE9=Duran Duran - White Lines (Don't Do It)
EXTD=
EXTT0=
EXTT1=
EXTT2=
EXTT3=
EXTT4=
EXTT5=
EXTT6=
EXTT7=
EXTT8=
EXTT9=
PLAYORDER=
